<mxfile host="app.diagrams.net" modified="2022-11-14T10:39:26.554Z" agent="5.0 (Windows NT 10.0; Win64; x64) AppleWebKit/537.36 (KHTML, like Gecko) Chrome/107.0.0.0 Safari/537.36" etag="LzVtOUBWOCc_Nf6mvRpY" version="20.5.3" type="github" pages="2">
  <diagram id="7N2PUeJ87voyK_xcQXhT" name="Подготовка к экзамену">
    <mxGraphModel dx="1247" dy="706" grid="1" gridSize="10" guides="1" tooltips="1" connect="1" arrows="1" fold="1" page="1" pageScale="1" pageWidth="827" pageHeight="1169" math="0" shadow="0">
      <root>
        <mxCell id="0" />
        <mxCell id="1" parent="0" />
        <mxCell id="8d4UXsbbK7vcjVCUPUbl-1" value="&lt;b&gt;&lt;font style=&quot;font-size: 18px;&quot;&gt;Подготовиться к экзаменам&lt;/font&gt;&lt;/b&gt;" style="rounded=0;whiteSpace=wrap;html=1;fillColor=#ffe6cc;strokeColor=#d79b00;fontFamily=Tahoma;horizontal=1;shadow=1;" vertex="1" parent="1">
          <mxGeometry x="240" y="320" width="320" height="160" as="geometry" />
        </mxCell>
        <mxCell id="8d4UXsbbK7vcjVCUPUbl-6" value="" style="endArrow=classic;html=1;rounded=0;fontSize=18;entryX=0.25;entryY=1;entryDx=0;entryDy=0;" edge="1" parent="1" target="8d4UXsbbK7vcjVCUPUbl-1">
          <mxGeometry width="50" height="50" relative="1" as="geometry">
            <mxPoint x="320" y="680" as="sourcePoint" />
            <mxPoint x="140" y="100" as="targetPoint" />
          </mxGeometry>
        </mxCell>
        <mxCell id="8d4UXsbbK7vcjVCUPUbl-7" value="&lt;font style=&quot;font-size: 14px;&quot;&gt;Учителя и &lt;br&gt;репетиторы&lt;/font&gt;" style="edgeLabel;html=1;align=center;verticalAlign=middle;resizable=0;points=[];fontSize=18;labelBackgroundColor=none;fontFamily=Tahoma;horizontal=1;" vertex="1" connectable="0" parent="8d4UXsbbK7vcjVCUPUbl-6">
          <mxGeometry x="-0.296" y="-1" relative="1" as="geometry">
            <mxPoint x="-11" y="-25" as="offset" />
          </mxGeometry>
        </mxCell>
        <mxCell id="8d4UXsbbK7vcjVCUPUbl-8" value="" style="endArrow=classic;html=1;rounded=0;fontSize=18;entryX=0.5;entryY=1;entryDx=0;entryDy=0;" edge="1" parent="1" target="8d4UXsbbK7vcjVCUPUbl-1">
          <mxGeometry width="50" height="50" relative="1" as="geometry">
            <mxPoint x="400" y="680" as="sourcePoint" />
            <mxPoint x="400" y="910" as="targetPoint" />
          </mxGeometry>
        </mxCell>
        <mxCell id="8d4UXsbbK7vcjVCUPUbl-9" value="&lt;font style=&quot;font-size: 14px;&quot;&gt;Дополнительные&lt;br&gt;&amp;nbsp;занятия&lt;/font&gt;" style="edgeLabel;html=1;align=center;verticalAlign=middle;resizable=0;points=[];fontSize=18;labelBackgroundColor=none;fontFamily=Tahoma;horizontal=1;" vertex="1" connectable="0" parent="8d4UXsbbK7vcjVCUPUbl-8">
          <mxGeometry x="-0.296" y="-1" relative="1" as="geometry">
            <mxPoint x="9" y="-25" as="offset" />
          </mxGeometry>
        </mxCell>
        <mxCell id="8d4UXsbbK7vcjVCUPUbl-10" value="" style="endArrow=classic;html=1;rounded=0;fontSize=18;entryX=0.75;entryY=1;entryDx=0;entryDy=0;" edge="1" parent="1" target="8d4UXsbbK7vcjVCUPUbl-1">
          <mxGeometry width="50" height="50" relative="1" as="geometry">
            <mxPoint x="480" y="680" as="sourcePoint" />
            <mxPoint x="720" y="770" as="targetPoint" />
          </mxGeometry>
        </mxCell>
        <mxCell id="8d4UXsbbK7vcjVCUPUbl-11" value="&lt;span style=&quot;font-size: 14px;&quot;&gt;Пробники&lt;/span&gt;" style="edgeLabel;html=1;align=center;verticalAlign=middle;resizable=0;points=[];fontSize=18;labelBackgroundColor=none;fontFamily=Tahoma;horizontal=1;" vertex="1" connectable="0" parent="8d4UXsbbK7vcjVCUPUbl-10">
          <mxGeometry x="-0.296" y="-1" relative="1" as="geometry">
            <mxPoint x="29" y="-20" as="offset" />
          </mxGeometry>
        </mxCell>
        <mxCell id="8d4UXsbbK7vcjVCUPUbl-13" value="" style="endArrow=classic;html=1;rounded=0;fontSize=18;entryX=0.25;entryY=0;entryDx=0;entryDy=0;" edge="1" parent="1" target="8d4UXsbbK7vcjVCUPUbl-1">
          <mxGeometry width="50" height="50" relative="1" as="geometry">
            <mxPoint x="320" y="120" as="sourcePoint" />
            <mxPoint x="394.01700000000005" y="509.04999999999995" as="targetPoint" />
          </mxGeometry>
        </mxCell>
        <mxCell id="8d4UXsbbK7vcjVCUPUbl-15" value="Учебники &lt;br&gt;для подготовки" style="text;html=1;align=center;verticalAlign=middle;resizable=0;points=[];autosize=1;strokeColor=none;fillColor=none;fontSize=14;fontFamily=Tahoma;horizontal=1;" vertex="1" parent="1">
          <mxGeometry x="240" y="190" width="120" height="50" as="geometry" />
        </mxCell>
        <mxCell id="8d4UXsbbK7vcjVCUPUbl-16" value="" style="endArrow=classic;html=1;rounded=0;fontSize=18;fontFamily=Tahoma;horizontal=1;" edge="1" parent="1" source="8d4UXsbbK7vcjVCUPUbl-1">
          <mxGeometry width="50" height="50" relative="1" as="geometry">
            <mxPoint x="600" y="410" as="sourcePoint" />
            <mxPoint x="760" y="400" as="targetPoint" />
          </mxGeometry>
        </mxCell>
        <mxCell id="8d4UXsbbK7vcjVCUPUbl-17" value="&lt;span style=&quot;font-size: 14px;&quot;&gt;Сдача экзамена &lt;br&gt;на отличную оценку&lt;/span&gt;" style="edgeLabel;html=1;align=center;verticalAlign=middle;resizable=0;points=[];fontSize=18;labelBackgroundColor=none;fontFamily=Tahoma;horizontal=1;" vertex="1" connectable="0" parent="8d4UXsbbK7vcjVCUPUbl-16">
          <mxGeometry x="-0.296" y="-1" relative="1" as="geometry">
            <mxPoint x="33" y="-28" as="offset" />
          </mxGeometry>
        </mxCell>
        <mxCell id="8d4UXsbbK7vcjVCUPUbl-22" value="" style="endArrow=classic;html=1;rounded=0;fontSize=18;entryX=0;entryY=0.5;entryDx=0;entryDy=0;fontFamily=Tahoma;horizontal=1;" edge="1" parent="1" target="8d4UXsbbK7vcjVCUPUbl-1">
          <mxGeometry width="50" height="50" relative="1" as="geometry">
            <mxPoint x="40" y="400" as="sourcePoint" />
            <mxPoint x="434.01700000000005" y="549.05" as="targetPoint" />
          </mxGeometry>
        </mxCell>
        <mxCell id="8d4UXsbbK7vcjVCUPUbl-23" value="&lt;span style=&quot;font-size: 14px;&quot;&gt;Информация об экзамене&lt;/span&gt;" style="edgeLabel;html=1;align=center;verticalAlign=middle;resizable=0;points=[];fontSize=18;labelBackgroundColor=none;fontFamily=Tahoma;horizontal=1;" vertex="1" connectable="0" parent="8d4UXsbbK7vcjVCUPUbl-22">
          <mxGeometry x="-0.296" y="-1" relative="1" as="geometry">
            <mxPoint x="28" y="-16" as="offset" />
          </mxGeometry>
        </mxCell>
        <mxCell id="8d4UXsbbK7vcjVCUPUbl-24" value="" style="endArrow=classic;html=1;rounded=0;fontSize=18;entryX=0.75;entryY=0;entryDx=0;entryDy=0;" edge="1" parent="1" target="8d4UXsbbK7vcjVCUPUbl-1">
          <mxGeometry width="50" height="50" relative="1" as="geometry">
            <mxPoint x="480" y="120" as="sourcePoint" />
            <mxPoint x="444.01700000000005" y="559.05" as="targetPoint" />
          </mxGeometry>
        </mxCell>
        <mxCell id="8d4UXsbbK7vcjVCUPUbl-25" value="&lt;span style=&quot;font-size: 14px;&quot;&gt;Видеоуроки &lt;br&gt;в интернете&lt;/span&gt;" style="edgeLabel;html=1;align=center;verticalAlign=middle;resizable=0;points=[];fontSize=18;labelBackgroundColor=none;fontFamily=Tahoma;horizontal=1;" vertex="1" connectable="0" parent="8d4UXsbbK7vcjVCUPUbl-24">
          <mxGeometry x="-0.296" y="-1" relative="1" as="geometry">
            <mxPoint x="21" y="25" as="offset" />
          </mxGeometry>
        </mxCell>
        <mxCell id="gSHmX20CyyZAmLulWUDp-1" value="А0" style="text;html=1;strokeColor=none;fillColor=none;align=center;verticalAlign=middle;whiteSpace=wrap;rounded=0;labelBackgroundColor=none;fontSize=14;fontFamily=Tahoma;horizontal=1;" vertex="1" parent="1">
          <mxGeometry x="530" y="450" width="30" height="30" as="geometry" />
        </mxCell>
      </root>
    </mxGraphModel>
  </diagram>
  <diagram id="37iBj5kOMY-0HO2CEy-Y" name="Получение водительских прав">
    <mxGraphModel dx="1247" dy="706" grid="1" gridSize="10" guides="1" tooltips="1" connect="1" arrows="1" fold="1" page="1" pageScale="1" pageWidth="827" pageHeight="1169" math="0" shadow="0">
      <root>
        <mxCell id="0" />
        <mxCell id="1" parent="0" />
        <mxCell id="VevEm6iZHkQ-x7ZVV-Ih-1" value="Выбрать автошколу и пройти курсы" style="rounded=0;whiteSpace=wrap;html=1;labelBackgroundColor=none;fontFamily=Times New Roman;fontSize=15;fillColor=#CCCCFF;strokeColor=#6666FF;sketch=0;shadow=1;" vertex="1" parent="1">
          <mxGeometry x="20" y="200" width="160" height="80" as="geometry" />
        </mxCell>
        <mxCell id="lD2_cZABrEj2HFae_bbN-1" value="Сдать теоретический экзамен" style="rounded=0;whiteSpace=wrap;html=1;labelBackgroundColor=none;fontFamily=Times New Roman;fontSize=15;fillColor=#CCCCFF;strokeColor=#6666FF;sketch=0;shadow=1;" vertex="1" parent="1">
          <mxGeometry x="220" y="280" width="160" height="80" as="geometry" />
        </mxCell>
        <mxCell id="lD2_cZABrEj2HFae_bbN-2" value="Пройти практику" style="rounded=0;whiteSpace=wrap;html=1;labelBackgroundColor=none;fontFamily=Times New Roman;fontSize=15;fillColor=#CCCCFF;strokeColor=#6666FF;sketch=0;shadow=1;" vertex="1" parent="1">
          <mxGeometry x="420" y="360" width="160" height="80" as="geometry" />
        </mxCell>
        <mxCell id="lD2_cZABrEj2HFae_bbN-3" value="Получить водительские права" style="rounded=0;whiteSpace=wrap;html=1;labelBackgroundColor=none;fontFamily=Times New Roman;fontSize=15;fillColor=#CCCCFF;strokeColor=#6666FF;sketch=0;shadow=1;" vertex="1" parent="1">
          <mxGeometry x="590" y="450" width="160" height="80" as="geometry" />
        </mxCell>
      </root>
    </mxGraphModel>
  </diagram>
</mxfile>
